<?xml version="1.0" standalone="no"?><!DOCTYPE svg PUBLIC "-//W3C//DTD SVG 1.1//EN" "http://www.w3.org/Graphics/SVG/1.1/DTD/svg11.dtd"><svg t="1692456126877" class="icon" viewBox="0 0 1024 1024" version="1.1" xmlns="http://www.w3.org/2000/svg" p-id="2065" xmlns:xlink="http://www.w3.org/1999/xlink" width="200" height="200"><path d="M389.12 834.133333m-64 0a64 64 0 1 0 128 0 64 64 0 1 0-128 0Z" fill="#212121" p-id="2066"></path><path d="M799.573333 834.133333m-64 0a64 64 0 1 0 128 0 64 64 0 1 0-128 0Z" fill="#212121" p-id="2067"></path><path d="M430.933333 667.733333a122.026667 122.026667 0 0 1-116.053333-85.333333L173.226667 167.253333a14.08 14.08 0 0 0-12.8-9.386666H101.546667a32 32 0 1 1 0-64h58.88a78.08 78.08 0 0 1 73.386666 52.48L256 213.333333h576a122.453333 122.453333 0 0 1 115.626667 163.413334L885.76 554.666667a122.88 122.88 0 0 1-103.68 81.066666l-339.2 32.853334zM278.613333 278.613333l96.853334 285.44a58.026667 58.026667 0 0 0 61.013333 39.253334l341.333333-32.426667a59.306667 59.306667 0 0 0 49.92-38.826667l61.44-175.36a56.746667 56.746667 0 0 0-7.253333-53.333333 57.6 57.6 0 0 0-47.786667-24.746667z" fill="#212121" p-id="2068"></path></svg>